<?xml version="1.0" encoding="UTF-8"?>
<svg version="1.1" xmlns="http://www.w3.org/2000/svg" width="500" height="500">
<path d="M0 0 C165 0 330 0 500 0 C500 165 500 330 500 500 C335 500 170 500 0 500 C0 335 0 170 0 0 Z " fill="#FDFDFD" transform="translate(0,0)"/>
<path d="M0 0 C165 0 330 0 500 0 C500 165 500 330 500 500 C335 500 170 500 0 500 C0 335 0 170 0 0 Z M199 14 C197.53549337 14.3166673 196.07066286 14.63184149 194.60546875 14.9453125 C150.90360983 24.7166424 112.13976048 48.37756727 80 79 C79.15050781 79.79664062 78.30101563 80.59328125 77.42578125 81.4140625 C71.09150108 87.51963239 65.68257998 94.14516294 60.39550781 101.15136719 C59.47017055 102.37716386 58.53987049 103.59923095 57.60449219 104.81738281 C18.49240648 155.76998781 2.94471509 221.22926785 11.17797852 284.68798828 C11.9686113 289.82729079 12.90402767 294.917282 14 300 C14.18191895 300.85271484 14.36383789 301.70542969 14.55126953 302.58398438 C15.7835898 308.13878637 17.30417347 313.57027378 19 319 C19.2676416 319.86979492 19.5352832 320.73958984 19.81103516 321.63574219 C28.52353537 349.47048313 41.85703375 375.15453699 60 398 C61.0209375 399.30904297 61.0209375 399.30904297 62.0625 400.64453125 C91.95020658 438.16898638 131.59850248 464.75705763 177 480 C178.23234375 480.41636719 179.4646875 480.83273437 180.734375 481.26171875 C198.04543206 486.60281318 216.5988186 490.1469305 234.71875 490.16796875 C235.7348938 490.17129715 236.7510376 490.17462555 237.79797363 490.17805481 C239.94278515 490.18309782 242.08760444 490.18546395 244.23242188 490.18530273 C247.4623766 490.1874747 250.6919812 490.2056187 253.921875 490.22460938 C316.78247654 490.39570189 376.89299821 463.68982529 421.4375 419.75 C425.45639285 415.6268895 429.3178302 411.4259681 433 407 C433.41443359 406.50999512 433.82886719 406.01999023 434.25585938 405.51513672 C454.4433366 381.54784624 468.84117004 354.56535958 479 325 C479.26393555 324.2570166 479.52787109 323.5140332 479.79980469 322.74853516 C483.92521212 311.10998692 486.10730252 299.17497567 488 287 C488.27034058 285.43064697 488.27034058 285.43064697 488.54614258 283.82958984 C490.25934557 272.88739363 490.33834498 262.03217664 490.31567383 250.97705078 C490.31251919 247.76950885 490.33603605 244.56289711 490.36132812 241.35546875 C490.40013561 228.62287411 489.51609901 216.4857856 487 204 C486.85499557 203.27489227 486.70999115 202.54978455 486.56059265 201.80270386 C482.57193621 182.14554303 475.80320579 163.00395105 467 145 C466.59410645 144.1637207 466.18821289 143.32744141 465.77001953 142.46582031 C459.56048953 129.80370758 452.51994721 118.23058201 444 107 C443.5359375 106.38044434 443.071875 105.76088867 442.59375 105.12255859 C435.92198253 96.24503277 428.68416241 88.01080056 421 80 C419.82630859 78.76443359 419.82630859 78.76443359 418.62890625 77.50390625 C413.12803192 71.84614424 407.19250713 66.88144371 401 62 C400.00097656 61.195625 399.00195312 60.39125 397.97265625 59.5625 C373.01556265 39.67566987 342.94377503 24.74587436 312 17 C311.02675781 16.73832031 310.05351562 16.47664063 309.05078125 16.20703125 C293.83759479 12.20569916 278.70096505 9.88541267 262.96484375 9.76171875 C261.93600571 9.75201553 260.90716766 9.74231232 259.84715271 9.73231506 C256.54389508 9.70751997 253.2408412 9.69481053 249.9375 9.6875 C248.81361877 9.68488159 247.68973755 9.68226318 246.53179932 9.67956543 C230.30910081 9.67550519 214.8432786 10.21623273 199 14 Z " fill="#F5F3EF" transform="translate(0,0)"/>
<path d="M0 0 C1.06527924 -0.0033284 2.13055847 -0.0066568 3.2281189 -0.01008606 C5.47547985 -0.01512978 7.72284824 -0.01749518 9.97021484 -0.01733398 C13.36699126 -0.0195111 16.76343756 -0.03766867 20.16015625 -0.05664062 C31.22144671 -0.08591661 41.88467742 0.0445858 52.7734375 2.16796875 C53.66095703 2.32467041 54.54847656 2.48137207 55.46289062 2.64282227 C94.1200521 9.60514746 130.83250491 24.7181409 161.7734375 49.16796875 C163.14048828 50.24498047 163.14048828 50.24498047 164.53515625 51.34375 C187.65655332 69.91343124 208.27803639 92.14654217 222.7734375 118.16796875 C223.49466797 119.46105957 223.49466797 119.46105957 224.23046875 120.78027344 C239.43687142 148.35344032 248.63149863 176.22875995 253.7734375 207.16796875 C253.9499585 208.04340332 254.12647949 208.91883789 254.30834961 209.82080078 C254.94220283 214.38254758 254.97511961 218.88742358 255.01171875 223.48828125 C255.02146729 224.49215378 255.03121582 225.49602631 255.04125977 226.53031921 C255.20724445 248.06983997 255.23066231 269.00722017 250.7734375 290.16796875 C250.59683594 291.05468262 250.42023438 291.94139648 250.23828125 292.85498047 C243.20514865 327.40198829 226.62269245 360.6555797 204.7734375 388.16796875 C204.0928125 389.04066406 203.4121875 389.91335938 202.7109375 390.8125 C164.63596054 438.61619349 107.47721095 471.95367954 46.48486328 479.44921875 C36.50714213 480.46273659 26.47745432 480.38970749 16.45898438 480.40820312 C13.30832026 480.41786181 10.15832307 480.44894394 7.0078125 480.48046875 C-9.36456698 480.56622964 -25.29321515 479.11694151 -41.1640625 474.91796875 C-41.97214355 474.70889893 -42.78022461 474.4998291 -43.61279297 474.28442383 C-70.99587196 467.00561077 -98.17152728 455.85371408 -121.2265625 439.16796875 C-121.83032715 438.73258789 -122.4340918 438.29720703 -123.05615234 437.84863281 C-139.56275589 425.88637399 -155.14554672 412.89134972 -168.2265625 397.16796875 C-168.64099609 396.67796387 -169.05542969 396.18795898 -169.48242188 395.68310547 C-188.81194184 372.73441234 -203.60304208 346.58199642 -213.2265625 318.16796875 C-213.53964355 317.2557959 -213.85272461 316.34362305 -214.17529297 315.40380859 C-219.09117739 300.87765961 -222.18221076 286.35747515 -224.2265625 271.16796875 C-224.4030835 269.9365918 -224.57960449 268.70521484 -224.76147461 267.43652344 C-225.32872687 262.83735288 -225.38839576 258.2779567 -225.39453125 253.6484375 C-225.39785965 252.75038895 -225.40118805 251.85234039 -225.40461731 250.92707825 C-225.40965735 249.03024808 -225.41202654 247.13340912 -225.41186523 245.23657227 C-225.41402724 242.40169694 -225.43214634 239.56722728 -225.45117188 236.73242188 C-225.50160728 220.7973559 -224.44462216 205.09457364 -221.1015625 189.48046875 C-220.89055908 188.48772949 -220.67955566 187.49499023 -220.4621582 186.47216797 C-216.49269982 168.67746522 -210.22784691 151.53186349 -202.2265625 135.16796875 C-201.82066895 134.33168945 -201.41477539 133.49541016 -200.99658203 132.63378906 C-194.78760961 119.97281331 -187.74995066 108.39499711 -179.2265625 97.16796875 C-178.75718262 96.5430957 -178.28780273 95.91822266 -177.80419922 95.27441406 C-171.40884629 86.79357127 -164.5626412 78.84575708 -157.2265625 71.16796875 C-156.39253906 70.29269531 -155.55851562 69.41742188 -154.69921875 68.515625 C-148.90354684 62.57345902 -142.74926585 57.29294996 -136.2265625 52.16796875 C-135.22882813 51.36488281 -134.23109375 50.56179687 -133.203125 49.734375 C-96.42954657 20.42351776 -47.37812152 0.05228015 0 0 Z M-129.7265625 110.79296875 C-141.28178541 123.48764742 -150.45011821 137.91824164 -158.2265625 153.16796875 C-158.55881836 153.81862305 -158.89107422 154.46927734 -159.23339844 155.13964844 C-167.59438629 171.75037251 -172.6271385 188.95757384 -176.2265625 207.16796875 C-176.41492676 208.06483398 -176.60329102 208.96169922 -176.79736328 209.88574219 C-178.51603216 218.84616599 -178.62140989 227.70274583 -178.6015625 236.79296875 C-178.60201569 237.6011203 -178.60246887 238.40927185 -178.60293579 239.24191284 C-178.53731681 279.28084037 -167.18568932 319.70043938 -143.2265625 352.16796875 C-142.82614746 352.72097656 -142.42573242 353.27398437 -142.01318359 353.84375 C-123.56124582 379.22909814 -100.11587484 398.85367942 -72.2265625 413.16796875 C-71.61312988 413.48958984 -70.99969727 413.81121094 -70.36767578 414.14257812 C-54.25957724 422.51575431 -36.17068631 428.45903746 -18.2265625 431.16796875 C-16.53853516 431.47154297 -16.53853516 431.47154297 -14.81640625 431.78125 C34.70126954 439.56638192 86.03596282 426.97374361 126.7734375 398.16796875 C127.34465332 397.76642578 127.91586914 397.36488281 128.50439453 396.95117188 C168.10028383 368.74716658 196.88170583 324.00457522 205.1484375 275.98046875 C207.15024369 263.99967941 207.98234775 252.31984234 207.9609375 240.16796875 C207.96000092 239.48099915 207.95906433 238.79402954 207.95809937 238.08624268 C207.80367871 185.75513534 186.53237116 138.77364197 150.2109375 101.35546875 C145.33384072 96.61796687 140.13774136 92.34020509 134.7734375 88.16796875 C134.22445801 87.73726074 133.67547852 87.30655273 133.10986328 86.86279297 C58.17851654 28.47063144 -48.73591767 35.75144131 -129.7265625 110.79296875 Z " fill="#02205B" transform="translate(235.2265625,9.83203125)"/>
<path d="M0 0 C1.80373952 2.45262946 1.73130745 4.08100925 1.76663208 7.11186218 C1.78642624 8.1927562 1.8062204 9.27365021 1.82661438 10.38729858 C1.8330043 11.55299881 1.83939423 12.71869904 1.84597778 13.91972351 C1.86392899 15.11406509 1.88188019 16.30840668 1.90037537 17.53894043 C1.95462936 21.35984244 1.98842332 25.18061847 2.02175903 29.00175476 C2.05491868 31.58966298 2.08940706 34.17755453 2.12527466 36.76542664 C2.2103646 43.11492304 2.27865056 49.46443545 2.33425903 55.81425476 C3.14531097 55.53126022 3.95636292 55.24826569 4.79199219 54.95669556 C6.39821945 54.40653526 6.39821945 54.40653526 8.03689575 53.84526062 C9.09544769 53.47976608 10.15399963 53.11427155 11.24462891 52.73770142 C15.39448452 51.49736839 19.15774821 51.24270925 23.45925903 51.37675476 C24.61953613 51.39874939 24.61953613 51.39874939 25.80325317 51.42118835 C39.37785993 51.86896927 51.66588965 57.83570414 61.07254028 67.62284851 C65.09350508 72.03988264 68.33224338 76.66353613 71.33425903 81.81425476 C72.33320952 83.48155069 73.33298997 85.14835019 74.33425903 86.81425476 C74.93560669 85.79718445 74.93560669 85.79718445 75.54910278 84.75956726 C84.62794434 69.89579492 96.42622485 58.09583758 113.31863403 52.62284851 C125.5161036 49.73644834 139.87682595 50.42891909 151.07644653 56.23612976 C151.78027466 56.67441101 152.48410278 57.11269226 153.20925903 57.56425476 C157.02160932 59.54253623 159.51464699 60.04464673 163.77566528 59.58378601 C164.82754028 59.47212097 165.87941528 59.36045593 166.96316528 59.2454071 C173.99415809 58.34616512 180.99772665 57.28417772 188.00027466 56.18730164 C202.68890062 53.98521768 202.68890062 53.98521768 209.33425903 54.81425476 C211.81239479 57.29239051 211.58445972 57.99883922 211.58581543 61.41146851 C211.59388969 62.86448112 211.59388969 62.86448112 211.60212708 64.34684753 C211.59800308 65.41334534 211.59387909 66.47984314 211.58963013 67.57865906 C211.59506081 69.25935234 211.59506081 69.25935234 211.6006012 70.97399902 C211.60750959 73.41415274 211.60999795 75.85432196 211.60865402 78.29448509 C211.60769191 82.1570423 211.62059481 86.0193188 211.63763428 89.88183594 C211.68399638 100.86636732 211.70858894 111.8508694 211.71511841 122.835495 C211.71927739 129.5487618 211.74438615 136.26169662 211.7804451 142.97487831 C211.79024801 145.53408372 211.79257241 148.09332914 211.78727341 150.65254784 C211.78020342 154.23630691 211.79748686 157.81920048 211.82009888 161.40287781 C211.80784019 162.98744278 211.80784019 162.98744278 211.79533386 164.60401917 C211.86560212 170.8691937 212.54901238 174.74419305 216.33425903 179.81425476 C219.41806689 181.77608535 219.41806689 181.77608535 222.33425903 182.81425476 C222.33425903 183.47425476 222.33425903 184.13425476 222.33425903 184.81425476 C201.87425903 184.81425476 181.41425903 184.81425476 160.33425903 184.81425476 C160.66425903 183.82425476 160.99425903 182.83425476 161.33425903 181.81425476 C162.47894653 181.41206726 162.47894653 181.41206726 163.64675903 181.00175476 C167.36117325 179.36050197 168.48295917 177.37972116 170.33425903 173.81425476 C170.40007702 171.81533806 170.40962446 169.81283427 170.33425903 167.81425476 C169.84699341 168.31054382 169.35972778 168.80683289 168.85769653 169.31816101 C158.31227639 179.42259086 144.53634926 185.74816016 129.83425903 186.12675476 C115.99749436 185.66884744 104.42888918 182.12007077 93.33425903 173.81425476 C92.67812622 173.33601257 92.02199341 172.85777039 91.34597778 172.36503601 C84.62031066 167.01415455 80.10547953 159.86353751 75.33425903 152.81425476 C75.0777356 153.40851257 74.82121216 154.00277039 74.55691528 154.61503601 C68.5021543 167.72349161 58.90487724 178.32826017 45.33425903 183.81425476 C33.81668457 187.34780188 21.77766172 186.82256551 11.05227661 181.21879578 C3.79982026 177.27981599 3.79982026 177.27981599 2.33425903 175.81425476 C2.06613403 176.92800476 1.79800903 178.04175476 1.52175903 179.18925476 C0.33425903 182.81425476 0.33425903 182.81425476 -2.66574097 184.81425476 C-4.81080627 185.05476379 -4.81080627 185.05476379 -7.32077026 185.04130554 C-8.73189339 185.04107895 -8.73189339 185.04107895 -10.17152405 185.04084778 C-11.18410782 185.03052521 -12.19669159 185.02020264 -13.23995972 185.00956726 C-14.79841362 185.00532242 -14.79841362 185.00532242 -16.38835144 185.00099182 C-19.71009794 184.98978758 -23.03157582 184.9646824 -26.35324097 184.93925476 C-28.60388812 184.92922528 -30.85453949 184.92009938 -33.10519409 184.91191101 C-38.62546819 184.88984746 -44.14558539 184.85636747 -49.66574097 184.81425476 C-49.33574097 183.82425476 -49.00574097 182.83425476 -48.66574097 181.81425476 C-47.71699097 181.38112976 -46.76824097 180.94800476 -45.79074097 180.50175476 C-41.90234973 178.40202349 -41.29365169 176.86740223 -39.66574097 172.81425476 C-39.22055578 169.61326243 -39.22055578 169.61326243 -39.28479004 166.20401001 C-39.27633057 164.89037979 -39.26787109 163.57674957 -39.25915527 162.22331238 C-39.26498736 160.77958554 -39.27113181 159.33585994 -39.27755737 157.89213562 C-39.27348959 156.36243312 -39.26814654 154.83273356 -39.2616272 153.30303955 C-39.24797349 149.15848965 -39.25324385 145.01416427 -39.26276445 140.86961055 C-39.27036977 136.52909546 -39.26331315 132.18859935 -39.25860596 127.8480835 C-39.25315153 120.56064916 -39.26033241 113.2733061 -39.27462769 105.98588562 C-39.29095974 97.56292949 -39.28566044 89.14019115 -39.26914847 80.71724027 C-39.25553199 73.4814133 -39.25361454 66.24565187 -39.26146448 59.00981623 C-39.26613932 54.68986698 -39.26677091 50.3700201 -39.25685501 46.05007744 C-39.24818504 41.98950063 -39.25420767 37.92920457 -39.27153778 33.86865807 C-39.27550222 32.37914242 -39.27436929 30.88960311 -39.26774979 29.40009689 C-39.25954354 27.36591184 -39.27166235 25.33167511 -39.28479004 23.29751587 C-39.28592112 22.1595201 -39.28705219 21.02152433 -39.28821754 19.84904385 C-39.70908453 16.46582979 -40.79813027 14.62264223 -42.66574097 11.81425476 C-42.66574097 11.15425476 -42.66574097 10.49425476 -42.66574097 9.81425476 C-44.97574097 9.15425476 -47.28574097 8.49425476 -49.66574097 7.81425476 C-49.66574097 6.82425476 -49.66574097 5.83425476 -49.66574097 4.81425476 C-43.95584157 3.95324727 -38.24499013 3.09896795 -32.53317261 2.2507782 C-30.59214439 1.96158909 -28.65138396 1.67059642 -26.71090698 1.37773132 C-23.91399297 0.9559346 -21.11616494 0.54073558 -18.31808472 0.12675476 C-17.02704079 -0.07010925 -17.02704079 -0.07010925 -15.70991516 -0.27095032 C-2.99604926 -2.13271524 -2.99604926 -2.13271524 0 0 Z " fill="#02205C" transform="translate(163.66574096679688,119.18574523925781)"/>
<path d="M0 0 C1.81664778 2.477993 1.73163473 4.15062819 1.76663208 7.20939636 C1.79632332 8.86076851 1.79632332 8.86076851 1.82661438 10.54550171 C1.8330043 11.73307571 1.83939423 12.92064972 1.84597778 14.14421082 C1.86392899 15.36074844 1.88188019 16.57728607 1.90037537 17.83068848 C1.95463301 21.72292089 1.98842453 25.6150296 2.02175903 29.50749207 C2.05491835 32.14357705 2.0894067 34.77964567 2.12527466 37.41569519 C2.21036849 43.88368323 2.27865291 50.35168697 2.33425903 56.81999207 C3.14467651 56.79678894 3.95509399 56.77358582 4.79006958 56.74967957 C5.86039429 56.73163269 6.93071899 56.71358582 8.03347778 56.69499207 C9.09139526 56.67178894 10.14931274 56.64858582 11.23928833 56.62467957 C17.87382661 57.04336148 22.55101662 60.70675928 27.02175903 65.38249207 C41.74168933 83.61203537 42.58135101 107.49542614 41.33425903 129.81999207 C40.65153587 135.3820304 39.20323535 140.53530041 37.33425903 145.81999207 C36.86632935 147.21991394 36.86632935 147.21991394 36.38894653 148.64811707 C32.46405487 159.40034129 27.06365216 167.52463475 17.39675903 173.69499207 C12.58370633 175.46305224 8.25427443 175.4599972 3.33425903 173.81999207 C3.15250122 174.44647644 2.97074341 175.07296082 2.78347778 175.71842957 C2.5321106 176.53569519 2.28074341 177.35296082 2.02175903 178.19499207 C1.77812622 179.00710144 1.53449341 179.81921082 1.28347778 180.65592957 C0.33425903 182.81999207 0.33425903 182.81999207 -2.66574097 184.81999207 C-4.81080627 185.0605011 -4.81080627 185.0605011 -7.32077026 185.04704285 C-8.73189339 185.04681625 -8.73189339 185.04681625 -10.17152405 185.04658508 C-11.18410782 185.03626251 -12.19669159 185.02593994 -13.23995972 185.01530457 C-14.79841362 185.01105972 -14.79841362 185.01105972 -16.38835144 185.00672913 C-19.71009794 184.99552488 -23.03157582 184.9704197 -26.35324097 184.94499207 C-28.60388812 184.93496259 -30.85453949 184.92583668 -33.10519409 184.91764832 C-38.62546819 184.89558477 -44.14558539 184.86210478 -49.66574097 184.81999207 C-49.33574097 183.82999207 -49.00574097 182.83999207 -48.66574097 181.81999207 C-47.71699097 181.38686707 -46.76824097 180.95374207 -45.79074097 180.50749207 C-41.90234973 178.4077608 -41.29365169 176.87313953 -39.66574097 172.81999207 C-39.22055578 169.61899974 -39.22055578 169.61899974 -39.28479004 166.20974731 C-39.27633057 164.8961171 -39.26787109 163.58248688 -39.25915527 162.22904968 C-39.26498736 160.78532285 -39.27113181 159.34159724 -39.27755737 157.89787292 C-39.27348959 156.36817043 -39.26814654 154.83847087 -39.2616272 153.30877686 C-39.24797349 149.16422696 -39.25324385 145.01990158 -39.26276445 140.87534785 C-39.27036977 136.53483277 -39.26331315 132.19433666 -39.25860596 127.8538208 C-39.25315153 120.56638646 -39.26033241 113.2790434 -39.27462769 105.99162292 C-39.29095974 97.56866679 -39.28566044 89.14592845 -39.26914847 80.72297758 C-39.25553199 73.48715061 -39.25361454 66.25138918 -39.26146448 59.01555353 C-39.26613932 54.69560428 -39.26677091 50.3757574 -39.25685501 46.05581474 C-39.24818504 41.99523794 -39.25420767 37.93494187 -39.27153778 33.87439537 C-39.27550222 32.38487972 -39.27436929 30.89534042 -39.26774979 29.4058342 C-39.25954354 27.37164915 -39.27166235 25.33741242 -39.28479004 23.30325317 C-39.28592112 22.16525741 -39.28705219 21.02726164 -39.28821754 19.85478115 C-39.70908453 16.47156709 -40.79813027 14.62837953 -42.66574097 11.81999207 C-42.66574097 11.15999207 -42.66574097 10.49999207 -42.66574097 9.81999207 C-44.97574097 9.15999207 -47.28574097 8.49999207 -49.66574097 7.81999207 C-49.66574097 6.82999207 -49.66574097 5.83999207 -49.66574097 4.81999207 C-43.95584157 3.95898458 -38.24499013 3.10470526 -32.53317261 2.2565155 C-30.59214439 1.9673264 -28.65138396 1.67633373 -26.71090698 1.38346863 C-23.91399297 0.9616719 -21.11616494 0.54647289 -18.31808472 0.13249207 C-17.02704079 -0.06437195 -17.02704079 -0.06437195 -15.70991516 -0.26521301 C-3.00140933 -2.12619303 -3.00140933 -2.12619303 0 0 Z " fill="#02205C" transform="translate(163.66574096679688,119.18000793457031)"/>
<path d="M0 0 C1.859375 0.77734375 1.859375 0.77734375 4.671875 2.27734375 C5.331875 2.60734375 5.991875 2.93734375 6.671875 3.27734375 C7.88677184 6.92203426 8.02109236 9.43996673 7.671875 13.27734375 C6.26821946 15.76138871 4.95822482 17.80386523 3.234375 20.02734375 C-1.57706018 26.46715132 -3.36907638 31.18365435 -2.328125 39.27734375 C-0.26568399 44.78859691 2.63549402 49.09647155 7.671875 52.27734375 C10.81533004 53.3251621 13.12215092 53.44390641 16.421875 53.46484375 C17.42734375 53.47902344 18.4328125 53.49320313 19.46875 53.5078125 C23.36745749 53.33730689 23.36745749 53.33730689 29.671875 51.27734375 C29.671875 69.42734375 29.671875 87.57734375 29.671875 106.27734375 C19.10225374 112.04259171 11.40829973 115.32534353 -0.18359375 112.1015625 C-12.93090187 107.20232386 -21.14035702 97.15596819 -27.015625 85.15234375 C-27.82488825 83.20957602 -28.59387698 81.24968584 -29.328125 79.27734375 C-29.72257812 78.22160156 -30.11703125 77.16585937 -30.5234375 76.078125 C-36.76240405 55.89964928 -35.85630737 31.84142311 -26.6484375 12.8046875 C-25.01932386 9.82521967 -23.27176212 7.05898243 -21.328125 4.27734375 C-20.89113281 3.58382812 -20.45414062 2.8903125 -20.00390625 2.17578125 C-15.19953484 -4.14348205 -6.77338279 -2.1024762 0 0 Z " fill="#FDFDFE" transform="translate(305.328125,173.72265625)"/>
<path d="M0 0 C11.29517154 5.71493347 17.05583893 16.15330265 20.95703125 27.83203125 C26.60616527 47.09598466 27.48757965 69.05384266 20.73046875 88.16015625 C20.41851562 89.0934375 20.1065625 90.02671875 19.78515625 90.98828125 C15.86026459 101.74050547 10.45986188 109.86479894 0.79296875 116.03515625 C-5.09607744 118.19847934 -9.38804903 117.51274914 -15.26953125 115.16015625 C-15.26953125 77.54015625 -15.26953125 39.92015625 -15.26953125 1.16015625 C-9.73322972 -1.05436436 -5.60609293 -2.07454386 0 0 Z " fill="#FDFDFD" transform="translate(180.26953125,176.83984375)"/>
<path d="M0 0 C56.76 0 113.52 0 172 0 C172 2.97 172 5.94 172 9 C115.24 9 58.48 9 0 9 C0 6.03 0 3.06 0 0 Z " fill="#B9C0D1" transform="translate(164,314)"/>
<path d="M0 0 C4.71862082 3.8797549 7.41445692 8.03687306 8.3203125 14.16796875 C8.61659277 19.90593 7.36257727 24.3297538 4 29 C-0.9438549 34.28359849 -5.52535087 37.01952931 -12.8125 37.375 C-17.98349951 37.23669689 -21.8763491 36.17883153 -26 33 C-31.95641432 26.66725449 -33.42793992 21.41457194 -33.34765625 12.82421875 C-32.6504571 7.16045484 -29.55097118 3.55097118 -25.625 -0.375 C-17.00271385 -5.71260571 -8.24440471 -5.41370781 0 0 Z " fill="#03215C" transform="translate(368,122)"/>
<path d="M0 0 C2.25245881 2.68841859 3.88213958 4.64641875 5 8 C-1.25838053 21.15135209 -11.99646023 32.09524398 -25.5625 37.375 C-36.75133766 40.77161143 -48.51714745 40.29761308 -59 35 C-62.4116763 33.11229787 -65.73218331 31.12656184 -69 29 C-69.185625 30.670625 -69.185625 30.670625 -69.375 32.375 C-70 36 -70 36 -72 38 C-74.06277466 38.24050903 -74.06277466 38.24050903 -76.63330078 38.22705078 C-77.59414581 38.22689972 -78.55499084 38.22674866 -79.54495239 38.22659302 C-80.58457123 38.21627045 -81.62419006 38.20594788 -82.6953125 38.1953125 C-83.75789276 38.1924826 -84.82047302 38.18965271 -85.91525269 38.18673706 C-89.31861499 38.17551639 -92.72171686 38.15040837 -96.125 38.125 C-98.42838162 38.11497264 -100.73176736 38.10584637 -103.03515625 38.09765625 C-108.69019345 38.07557093 -114.34507813 38.04207489 -120 38 C-120 37.34 -120 36.68 -120 36 C-115.17864432 33.13065442 -111.13863776 32.57153139 -105.64453125 32.59375 C-104.86107834 32.58291382 -104.07762543 32.57207764 -103.27043152 32.56091309 C-99.93954159 32.51523981 -96.60873509 32.50352758 -93.27758789 32.48876953 C-90.83711886 32.47310267 -88.39730431 32.44012628 -85.95703125 32.40625 C-85.20388138 32.40927124 -84.45073151 32.41229248 -83.67475891 32.41540527 C-79.62602073 32.37298166 -79.62602073 32.37298166 -76.0456543 30.67382812 C-74.52126832 28.23367164 -74.31388963 25.82500664 -74 23 C-73.03320312 23.55429687 -72.06640625 24.10859375 -71.0703125 24.6796875 C-63.89525932 28.70843597 -57.35798059 32.36681965 -49 33 C-48.19304687 33.06832031 -47.38609375 33.13664062 -46.5546875 33.20703125 C-33.76821648 33.7481515 -23.06381425 28.54812235 -13.46557617 20.40527344 C-11.03029017 18.07018994 -9.16718551 15.35924799 -7.3125 12.5625 C-6.93544922 12.01529297 -6.55839844 11.46808594 -6.16992188 10.90429688 C-3.79521717 7.40233269 -1.81453821 3.8191709 0 0 Z " fill="#9AA6BD" transform="translate(239,271)"/>
<path d="M0 0 C3.79692098 2.02665235 6.13048628 3.34807317 8.5546875 6.984375 C7.7090625 6.654375 6.8634375 6.324375 5.9921875 5.984375 C0.17576369 4.29232444 -4.48867559 4.99160218 -10.4453125 5.984375 C-10.4453125 42.284375 -10.4453125 78.584375 -10.4453125 115.984375 C-12.0953125 115.654375 -13.7453125 115.324375 -15.4453125 114.984375 C-15.4453125 77.364375 -15.4453125 39.744375 -15.4453125 0.984375 C-9.8098077 -1.26982692 -5.63609123 -2.34086856 0 0 Z " fill="#9BA6BE" transform="translate(180.4453125,177.015625)"/>
<path d="M0 0 C1.859375 0.77734375 1.859375 0.77734375 4.671875 2.27734375 C5.331875 2.60734375 5.991875 2.93734375 6.671875 3.27734375 C6.671875 3.93734375 6.671875 4.59734375 6.671875 5.27734375 C5.44210937 5.19613281 4.21234375 5.11492187 2.9453125 5.03125 C-0.35641142 4.87446233 -3.64014761 4.79679805 -6.9453125 4.86328125 C-7.69409668 4.87665527 -8.44288086 4.8900293 -9.21435547 4.90380859 C-11.78361999 5.35783663 -13.11326953 6.2751139 -15.078125 7.96484375 C-16.30752881 9.93920627 -16.30752881 9.93920627 -17.328125 12.27734375 C-17.83085937 13.22351563 -18.33359375 14.1696875 -18.8515625 15.14453125 C-20.51789796 18.46907371 -21.9458756 21.82560297 -23.328125 25.27734375 C-23.74578125 26.26863281 -24.1634375 27.25992188 -24.59375 28.28125 C-31.34396032 47.27215862 -28.39311199 70.80590831 -21.328125 89.27734375 C-20.7476693 90.49724456 -20.14865527 91.70887842 -19.515625 92.90234375 C-19.12375 93.68609375 -18.731875 94.46984375 -18.328125 95.27734375 C-18.823125 96.26734375 -18.823125 96.26734375 -19.328125 97.27734375 C-30.11136928 82.60323814 -33.91956273 66.5533079 -33.828125 48.52734375 C-33.82240479 47.2120166 -33.81668457 45.89668945 -33.81079102 44.54150391 C-33.53055468 29.23890131 -30.20008526 16.97446069 -21.328125 4.27734375 C-20.89113281 3.58382812 -20.45414062 2.8903125 -20.00390625 2.17578125 C-15.19953484 -4.14348205 -6.77338279 -2.1024762 0 0 Z " fill="#9AA5BD" transform="translate(305.328125,173.72265625)"/>
<path d="M0 0 C1.9375 0.375 1.9375 0.375 4 1 C5.21986067 3.43972133 5.13811722 5.03019371 5.15821838 7.75820923 C5.1680072 8.76224289 5.17779602 9.76627655 5.18788147 10.80073547 C5.19363693 11.90628281 5.1993924 13.01183014 5.20532227 14.15087891 C5.21522186 15.31184586 5.22512146 16.47281281 5.23532104 17.66896057 C5.26700799 21.52147352 5.29172191 25.37399883 5.31640625 29.2265625 C5.33696957 31.89171786 5.35791751 34.5568674 5.37937927 37.22201538 C5.42932463 43.52950748 5.4742566 49.83702501 5.51740164 56.14456689 C5.56675828 63.32467615 5.62168223 70.50473942 5.67708123 77.6848042 C5.79092955 92.45649251 5.89776238 107.22822666 6 122 C0.13968835 116.44021715 0.13968835 116.44021715 -0.12304783 111.85047626 C-0.12212604 111.01256644 -0.12120424 110.17465662 -0.12025452 109.31135559 C-0.12162918 108.34801804 -0.12300385 107.38468048 -0.12442017 106.39215088 C-0.12082489 105.33695251 -0.11722961 104.28175415 -0.11352539 103.19458008 C-0.11367142 102.08223495 -0.11381744 100.96988983 -0.1139679 99.82383728 C-0.11327 96.13904892 -0.10548331 92.45431081 -0.09765625 88.76953125 C-0.09579163 86.21791105 -0.09436794 83.66629049 -0.09336853 81.1146698 C-0.08993763 75.07987877 -0.08205231 69.04510939 -0.07201904 63.01032704 C-0.06084404 56.13977402 -0.05534395 49.26922014 -0.05032361 42.3986603 C-0.03986934 28.26576351 -0.02227852 14.13288274 0 0 Z " fill="#95A1BA" transform="translate(375,178)"/>
<path d="M0 0 C0.45826062 5.7282577 -0.44174139 8.4998494 -4 13 C-6.29894474 15.29894474 -7.97533404 15.81643506 -11 17 C-12.18912148 17.64284294 -13.37645553 18.28899752 -14.5625 18.9375 C-26.66744171 24.96738701 -41.24092384 26.17655318 -54.1640625 22.12109375 C-61.43837312 19.24543652 -68.88788595 15.92573319 -75 11 C-74.67 10.34 -74.34 9.68 -74 9 C-72.80503906 9.61488281 -72.80503906 9.61488281 -71.5859375 10.2421875 C-70.52632813 10.78101563 -69.46671875 11.31984375 -68.375 11.875 C-67.33085937 12.40867187 -66.28671875 12.94234375 -65.2109375 13.4921875 C-52.30582149 19.55225414 -37.38327518 19.63646634 -24 15 C-15.88106007 11.62751726 -8.91954892 7.68503194 -2.57421875 1.50390625 C-1 0 -1 0 0 0 Z " fill="#98A4BC" transform="translate(335,286)"/>
<path d="M0 0 C2.86830829 2.01391859 4.61592935 3.45434983 5.48046875 6.93359375 C5.75393332 10.84339799 5.24368699 12.64208473 3 15.9375 C-1.00789275 18.69292627 -3.13135738 19 -8 19 C-10.96218928 17.77648704 -12.44338765 16.76865515 -14.3125 14.1875 C-15.25846855 11.17760008 -15.44072275 9.14801964 -15 6 C-11.1254241 -0.42285467 -7.20816696 -1.73990237 0 0 Z " fill="#333333" transform="translate(239,377)"/>
<path d="M0 0 C1.65 0 3.3 0 5 0 C5.33 5.61 5.66 11.22 6 17 C8.31 11.39 10.62 5.78 13 0 C14.65 0 16.3 0 18 0 C20.64 6.6 23.28 13.2 26 20 C24.35 20 22.7 20 21 20 C20.67 18.68 20.34 17.36 20 16 C17.03 16 14.06 16 11 16 C10.67 17.32 10.34 18.64 10 20 C6.7 20 3.4 20 0 20 C0 13.4 0 6.8 0 0 Z " fill="#404040" transform="translate(297,376)"/>
<path d="M0 0 C4.10899888 2.88740462 6.34941774 5.22199872 8 10 C9.16448013 17.39444882 7.94437967 22.68611237 3.79296875 28.8984375 C1.16107921 31.98331021 -1.30325702 33.36490214 -5 35 C-5.99 35.495 -5.99 35.495 -7 36 C-14.18857954 36.77415472 -19.59308653 36.52414991 -25.57421875 32.2890625 C-27 31 -27 31 -28 29 C-27.38125 29.165 -26.7625 29.33 -26.125 29.5 C-18.29349976 30.75304004 -11.62074395 30.79229796 -5 26 C-1.07207788 22.35192984 1.71018421 18.3174659 2.18359375 12.8984375 C2.31731048 8.19475494 1.80897778 4.40938333 0 0 Z " fill="#99A5BD" transform="translate(373,128)"/>
<path d="M0 0 C0.98136932 -0.00953201 1.96273865 -0.01906403 2.97384644 -0.02888489 C4.55517868 -0.02751778 4.55517868 -0.02751778 6.16845703 -0.02612305 C7.80332565 -0.03255074 7.80332565 -0.03255074 9.47122192 -0.03910828 C11.77605495 -0.04484938 14.08090609 -0.04535346 16.38574219 -0.04101562 C19.9060777 -0.0378599 23.42556941 -0.06130377 26.94580078 -0.08666992 C29.18668514 -0.0889434 31.42757175 -0.08964619 33.66845703 -0.08862305 C34.71863007 -0.09783279 35.7688031 -0.10704254 36.85079956 -0.11653137 C42.43211431 -0.08133266 46.31809393 0.21935144 51.05126953 3.2746582 C51.05126953 3.9346582 51.05126953 4.5946582 51.05126953 5.2746582 C30.92126953 5.2746582 10.79126953 5.2746582 -9.94873047 5.2746582 C-8.94873047 2.2746582 -8.94873047 2.2746582 -7.19552612 1.10432434 C-4.65359828 0.1656758 -2.70714161 0.01448203 0 0 Z " fill="#9FAAC1" transform="translate(339.94873046875,303.725341796875)"/>
<path d="M0 0 C9 0 9 0 12.5 2.0625 C15.48570354 5.57070167 16.08184146 7.41687812 16 12 C14.48819681 15.23957825 12.81464427 18.32790953 9.3125 19.625 C6.24587676 20.12229026 3.10668243 20 0 20 C0 13.4 0 6.8 0 0 Z " fill="#272727" transform="translate(207,376)"/>
<path d="M0 0 C9.03030303 0 9.03030303 0 14 4 C15.64965169 5.64965169 15.24949498 7.5476355 15.3125 9.8125 C15.27132368 14.61640446 15.27132368 14.61640446 13.1875 17.5625 C8.48902319 20.65007048 6.19213994 20 0 20 C0 13.4 0 6.8 0 0 Z " fill="#262626" transform="translate(330,344)"/>
<path d="M0 0 C1.32 0.33 2.64 0.66 4 1 C5.19791173 3.39582346 5.1206744 4.86777538 5.11352539 7.54150391 C5.11344986 8.48232819 5.11337433 9.42315247 5.11329651 10.39248657 C5.10813522 11.41023163 5.10297394 12.42797668 5.09765625 13.4765625 C5.0962413 14.51694672 5.09482635 15.55733093 5.09336853 16.62924194 C5.08775866 19.96119021 5.07520447 23.29307195 5.0625 26.625 C5.05748627 28.88020736 5.05292314 31.13541578 5.04882812 33.390625 C5.03778603 38.92710614 5.02103827 44.46354832 5 50 C5.66 50.33 6.32 50.66 7 51 C4.69 51.66 2.38 52.32 0 53 C0 35.51 0 18.02 0 0 Z " fill="#9BA7BE" transform="translate(165,123)"/>
<path d="M0 0 C9 0 9 0 12 2 C12.1875 4.5 12.1875 4.5 12 7 C12 7.66 12 8.32 12 9 C12.66 9.66 13.32 10.32 14 11 C13.8125 14.5 13.8125 14.5 13 18 C10 20 10 20 0 20 C0 13.4 0 6.8 0 0 Z " fill="#333333" transform="translate(120,344)"/>
<path d="M0 0 C1.65 0 3.3 0 5 0 C7.01953125 2.40625 7.01953125 2.40625 8.8125 5.5 C9.41707031 6.5209375 10.02164062 7.541875 10.64453125 8.59375 C11.09183594 9.3878125 11.53914063 10.181875 12 11 C12.33 7.37 12.66 3.74 13 0 C14.32 0 15.64 0 17 0 C17 6.6 17 13.2 17 20 C12 19 12 19 10.19921875 16.93359375 C9.70035156 16.10988281 9.20148438 15.28617187 8.6875 14.4375 C8.17574219 13.61121094 7.66398438 12.78492188 7.13671875 11.93359375 C6.76160156 11.29550781 6.38648438 10.65742188 6 10 C5.67 13.3 5.34 16.6 5 20 C3.35 20 1.7 20 0 20 C0 13.4 0 6.8 0 0 Z " fill="#2D2D2D" transform="translate(246,376)"/>
<path d="M0 0 C1.65 0 3.3 0 5 0 C7.01953125 2.40625 7.01953125 2.40625 8.8125 5.5 C9.41707031 6.5209375 10.02164063 7.541875 10.64453125 8.59375 C11.09183594 9.3878125 11.53914062 10.181875 12 11 C12.33 7.37 12.66 3.74 13 0 C14.32 0 15.64 0 17 0 C17 6.6 17 13.2 17 20 C12 19 12 19 10.19921875 16.93359375 C9.70035156 16.10988281 9.20148438 15.28617187 8.6875 14.4375 C8.17574219 13.61121094 7.66398438 12.78492188 7.13671875 11.93359375 C6.76160156 11.29550781 6.38648438 10.65742188 6 10 C5.67 13.3 5.34 16.6 5 20 C3.35 20 1.7 20 0 20 C0 13.4 0 6.8 0 0 Z " fill="#2D2D2D" transform="translate(155,344)"/>
<path d="M0 0 C1.65 0 3.3 0 5 0 C6.80078125 2.1875 6.80078125 2.1875 8.3125 5 C8.82425781 5.928125 9.33601562 6.85625 9.86328125 7.8125 C10.23839844 8.534375 10.61351562 9.25625 11 10 C11.33 6.7 11.66 3.4 12 0 C13.65 0 15.3 0 17 0 C17 6.6 17 13.2 17 20 C15.35 20 13.7 20 12 20 C9.98046875 17.59375 9.98046875 17.59375 8.1875 14.5 C7.58292969 13.4790625 6.97835937 12.458125 6.35546875 11.40625 C5.90816406 10.6121875 5.46085938 9.818125 5 9 C4.67 12.63 4.34 16.26 4 20 C2.68 20 1.36 20 0 20 C0 13.4 0 6.8 0 0 Z " fill="#2B2B2B" transform="translate(187,376)"/>
<path d="M0 0 C1.65 0 3.3 0 5 0 C6.80078125 2.1875 6.80078125 2.1875 8.3125 5 C8.82425781 5.928125 9.33601562 6.85625 9.86328125 7.8125 C10.23839844 8.534375 10.61351562 9.25625 11 10 C11.33 6.7 11.66 3.4 12 0 C13.65 0 15.3 0 17 0 C17 6.6 17 13.2 17 20 C15.35 20 13.7 20 12 20 C9.98046875 17.59375 9.98046875 17.59375 8.1875 14.5 C7.58292969 13.4790625 6.97835937 12.458125 6.35546875 11.40625 C5.90816406 10.6121875 5.46085938 9.818125 5 9 C4.67 12.63 4.34 16.26 4 20 C2.68 20 1.36 20 0 20 C0 13.4 0 6.8 0 0 Z " fill="#2B2B2B" transform="translate(214,344)"/>
<path d="M0 0 C10 0 10 0 14 3 C13.67 5.31 13.34 7.62 13 10 C12.01 10.33 11.02 10.66 10 11 C10.433125 11.56589844 10.86625 12.13179688 11.3125 12.71484375 C11.869375 13.44832031 12.42625 14.18179687 13 14.9375 C13.8353125 16.03384766 13.8353125 16.03384766 14.6875 17.15234375 C16 19 16 19 16 20 C13.8125 20.375 13.8125 20.375 11 20 C9.00977164 18.16038352 7.61010101 16.20813852 6 14 C5.67 15.98 5.34 17.96 5 20 C3.35 20 1.7 20 0 20 C0 13.4 0 6.8 0 0 Z " fill="#313131" transform="translate(312,344)"/>
<path d="M0 0 C1.65 0 3.3 0 5 0 C7.01953125 2.40625 7.01953125 2.40625 8.8125 5.5 C9.41707031 6.5209375 10.02164062 7.541875 10.64453125 8.59375 C11.09183594 9.3878125 11.53914063 10.181875 12 11 C12.33 7.37 12.66 3.74 13 0 C14.32 0 15.64 0 17 0 C17 6.6 17 13.2 17 20 C15.35 20 13.7 20 12 20 C10.19921875 17.8828125 10.19921875 17.8828125 8.6875 15.125 C8.17574219 14.22007812 7.66398437 13.31515625 7.13671875 12.3828125 C6 10 6 10 6 8 C5.34 8 4.68 8 4 8 C4 11.96 4 15.92 4 20 C2.68 20 1.36 20 0 20 C0 13.4 0 6.8 0 0 Z " fill="#252525" transform="translate(253,344)"/>
<path d="M0 0 C1.65 0 3.3 0 5 0 C8.1063786 6.56882431 10.83836487 13.06001352 13 20 C11.35 20 9.7 20 8 20 C7.67 18.68 7.34 17.36 7 16 C3.04 16.495 3.04 16.495 -1 17 C-1.33 17.99 -1.66 18.98 -2 20 C-3.65 20 -5.3 20 -7 20 C-5.07443364 13.14381674 -2.7527517 6.56747868 0 0 Z " fill="#383838" transform="translate(353,344)"/>
<path d="M0 0 C1.65 0 3.3 0 5 0 C8.1063786 6.56882431 10.83836487 13.06001352 13 20 C11.35 20 9.7 20 8 20 C7.67 18.68 7.34 17.36 7 16 C3.04 16.495 3.04 16.495 -1 17 C-1.33 17.99 -1.66 18.98 -2 20 C-3.65 20 -5.3 20 -7 20 C-5.07443364 13.14381674 -2.7527517 6.56747868 0 0 Z " fill="#383838" transform="translate(239,344)"/>
<path d="M0 0 C1.65 0 3.3 0 5 0 C5.33 4.62 5.66 9.24 6 14 C7.65 14.33 9.3 14.66 11 15 C11 10.05 11 5.1 11 0 C12.65 0 14.3 0 16 0 C16.1081866 2.58445773 16.18737237 5.16437352 16.25 7.75 C16.30027344 8.84441406 16.30027344 8.84441406 16.3515625 9.9609375 C16.41569582 13.4882702 16.30458894 15.5714191 14.234375 18.484375 C11.88920944 20.07515164 10.7960502 20.54368828 8 20.5 C7.34 20.5103125 6.68 20.520625 6 20.53125 C2.93733783 19.71773036 1.83550858 18.58270676 0 16 C-0.2906124 13.10550051 -0.38186045 10.62050065 -0.25 7.75 C-0.23195312 7.00492187 -0.21390625 6.25984375 -0.1953125 5.4921875 C-0.14835649 3.66090299 -0.07661652 1.83028351 0 0 Z " fill="#373737" transform="translate(195,344)"/>
<path d="M0 0 C2.26171875 -0.02734375 2.26171875 -0.02734375 5 1 C6.71270696 3.63439211 7.73087332 6.49824516 8.8125 9.4375 C9.12380859 10.22705078 9.43511719 11.01660156 9.75585938 11.83007812 C12 17.61552198 12 17.61552198 12 20 C10.35 20 8.7 20 7 20 C6.67 19.01 6.34 18.02 6 17 C3.36 17 0.72 17 -2 17 C-2.33 17.99 -2.66 18.98 -3 20 C-4.65 20 -6.3 20 -8 20 C-5.83836487 13.06001352 -3.1063786 6.56882431 0 0 Z " fill="#373737" transform="translate(142,344)"/>
<path d="M0 0 C1.9375 1.5625 1.9375 1.5625 3 3 C0.44564711 4.60829626 -0.54511517 5.09985277 -3.5625 4.4375 C-5.99444204 3.73305774 -5.99444204 3.73305774 -7.875 5.0625 C-9.52677204 7.90721851 -8.75730701 9.90192587 -8 13 C-5.65466049 13.76956136 -5.65466049 13.76956136 -3 14 C-1.1645201 12.66621425 -1.1645201 12.66621425 0 11 C-1.65 11 -3.3 11 -5 11 C-5 10.01 -5 9.02 -5 8 C-2.03 8 0.94 8 4 8 C4.46233492 11.9760803 4.30954571 13.56851204 1.9375 16.875 C-1 19 -1 19 -4.4375 19.625 C-9.0927625 18.80828728 -10.96377604 17.6286579 -14 14 C-15.0945995 9.37928608 -14.63551678 6.05188984 -12.1875 2 C-8.19223991 -1.65280922 -5.06685267 -1.08575414 0 0 Z " fill="#2D2D2D" transform="translate(189,345)"/>
<path d="M0 0 C1.051875 -0.00386719 1.051875 -0.00386719 2.125 -0.0078125 C4 0.125 4 0.125 6 1.125 C5.67 2.445 5.34 3.765 5 5.125 C4.04287109 5.21587891 4.04287109 5.21587891 3.06640625 5.30859375 C2.24011719 5.39238281 1.41382813 5.47617187 0.5625 5.5625 C-0.67306641 5.68431641 -0.67306641 5.68431641 -1.93359375 5.80859375 C-3.98662025 5.91430815 -3.98662025 5.91430815 -5 7.125 C-5.04080783 9.12458364 -5.04254356 11.12545254 -5 13.125 C-1.7 13.785 1.6 14.445 5 15.125 C5.33 16.445 5.66 17.765 6 19.125 C-2.57017648 20.83564787 -2.57017648 20.83564787 -5.96484375 19.1484375 C-9.15089391 16.48430753 -10.81604214 14.4740243 -11.375 10.375 C-10.8528401 5.8496142 -9.15770622 4.3578897 -6 1.125 C-3.75487738 0.00243869 -2.48543351 -0.00913762 0 0 Z " fill="#313131" transform="translate(290,343.875)"/>
<path d="M0 0 C3.63 0 7.26 0 11 0 C11 1.32 11 2.64 11 4 C8.69 4 6.38 4 4 4 C4 4.99 4 5.98 4 7 C6.31 7 8.62 7 11 7 C11 8.32 11 9.64 11 11 C8.69 11 6.38 11 4 11 C4 12.65 4 14.3 4 16 C6.31 16 8.62 16 11 16 C11 17.32 11 18.64 11 20 C7.37 20 3.74 20 0 20 C0 13.4 0 6.8 0 0 Z " fill="#242424" transform="translate(267,376)"/>
<path d="M0 0 C3.63 0 7.26 0 11 0 C11 1.32 11 2.64 11 4 C8.69 4 6.38 4 4 4 C4 4.99 4 5.98 4 7 C6.31 7 8.62 7 11 7 C11 8.32 11 9.64 11 11 C8.69 11 6.38 11 4 11 C4 12.65 4 14.3 4 16 C6.31 16 8.62 16 11 16 C11 17.32 11 18.64 11 20 C7.37 20 3.74 20 0 20 C0 13.4 0 6.8 0 0 Z " fill="#222222" transform="translate(298,344)"/>
<path d="M0 0 C0.66 0.99 1.32 1.98 2 3 C1.67 3.66 1.34 4.32 1 5 C-0.98 5 -2.96 5 -5 5 C-5 5.66 -5 6.32 -5 7 C-3.21034453 8.36277086 -3.21034453 8.36277086 -1 9.625 C-0.2575 10.07101562 0.485 10.51703125 1.25 10.9765625 C1.8275 11.31429688 2.405 11.65203125 3 12 C2.51984877 17.52173913 2.51984877 17.52173913 0.4375 19.4375 C-3.71483837 20.39573193 -8.16133822 19.91933089 -12 18 C-11.34 16.68 -10.68 15.36 -10 14 C-7.69 14.33 -5.38 14.66 -3 15 C-4.25202867 11.24391399 -5.63063573 10.85315035 -9 9 C-10 8 -10 8 -10.25 5.625 C-10 3 -10 3 -8.9375 1.1875 C-5.91496844 -0.66501934 -3.45067281 -0.37643703 0 0 Z " fill="#2C2C2C" transform="translate(292,376)"/>
<path d="M0 0 C0.66 0.99 1.32 1.98 2 3 C1.67 3.66 1.34 4.32 1 5 C-0.98 5 -2.96 5 -5 5 C-5 5.66 -5 6.32 -5 7 C-3.21034453 8.36277086 -3.21034453 8.36277086 -1 9.625 C-0.2575 10.07101562 0.485 10.51703125 1.25 10.9765625 C1.8275 11.31429688 2.405 11.65203125 3 12 C2.51984877 17.52173913 2.51984877 17.52173913 0.4375 19.4375 C-3.71483837 20.39573193 -8.16133822 19.91933089 -12 18 C-11.34 16.68 -10.68 15.36 -10 14 C-7.69 14.33 -5.38 14.66 -3 15 C-4.25202867 11.24391399 -5.63063573 10.85315035 -9 9 C-10 8 -10 8 -10.25 5.625 C-10 3 -10 3 -8.9375 1.1875 C-5.91496844 -0.66501934 -3.45067281 -0.37643703 0 0 Z " fill="#2C2C2C" transform="translate(378,344)"/>
<path d="M0 0 C0 2.64 0 5.28 0 8 C-15.74487472 8.92255125 -15.74487472 8.92255125 -23 3 C-22.67 2.34 -22.34 1.68 -22 1 C-21.01 1.33 -20.02 1.66 -19 2 C-17.04433497 2.11979145 -15.08429234 2.17528496 -13.125 2.1875 C-12.09632813 2.20167969 -11.06765625 2.21585938 -10.0078125 2.23046875 C-6.4212646 1.95565534 -3.49215052 0 0 0 Z " fill="#97A3BB" transform="translate(335,225)"/>
<path d="M0 0 C1.65 0 3.3 0 5 0 C5 6.6 5 13.2 5 20 C3.35 20 1.7 20 0 20 C0 13.4 0 6.8 0 0 Z " fill="#3A3A3A" transform="translate(179,376)"/>
<path d="M0 0 C3 0.25 3 0.25 5 2.25 C5.25 5.25 5.25 5.25 5 8.25 C3 10.25 3 10.25 0 10.5 C-3 10.25 -3 10.25 -5 8.25 C-5.25 5.25 -5.25 5.25 -5 2.25 C-3 0.25 -3 0.25 0 0 Z " fill="#F9F9F9" transform="translate(234,380.75)"/>
<path d="M0 0 C3.15998545 1.05332848 5.14745336 2.68060155 7.625 4.875 C4.655 4.875 1.685 4.875 -1.375 4.875 C-1.375 5.865 -1.375 6.855 -1.375 7.875 C0.275 7.875 1.925 7.875 3.625 7.875 C3.295 8.865 2.965 9.855 2.625 10.875 C0.375 11.625 0.375 11.625 -2.375 11.875 C-4.75 10.3125 -4.75 10.3125 -6.375 7.875 C-6.3125 4.75 -6.3125 4.75 -5.375 1.875 C-2.375 -0.125 -2.375 -0.125 0 0 Z " fill="#E3E3E3" transform="translate(185.375,348.125)"/>
<path d="M0 0 C1.32 0 2.64 0 4 0 C4 6.6 4 13.2 4 20 C2.68 20 1.36 20 0 20 C0 13.4 0 6.8 0 0 Z " fill="#222222" transform="translate(297,376)"/>
<path d="M0 0 C5 1 5 1 7 3 C6.53846154 9.46153846 6.53846154 9.46153846 4 12 C2.68 12 1.36 12 0 12 C0 8.04 0 4.08 0 0 Z " fill="#E0E0E0" transform="translate(211,380)"/>
<path d="M0 0 C2.475 0.495 2.475 0.495 5 1 C7 4 7 4 6.75 7.0625 C6 10 6 10 4 12 C2.68 12 1.36 12 0 12 C0 8.04 0 4.08 0 0 Z " fill="#E4E4E4" transform="translate(334,348)"/>
<path d="M0 0 C6.1992237 0.69932488 11.47891196 1.41559172 17.01171875 4.375 C17.01171875 4.705 17.01171875 5.035 17.01171875 5.375 C9.09171875 5.375 1.17171875 5.375 -6.98828125 5.375 C-2.98828125 0.375 -2.98828125 0.375 0 0 Z " fill="#F1F3F6" transform="translate(292.98828125,171.625)"/>
<path d="M0 0 C0.69867188 0.45761719 1.39734375 0.91523438 2.1171875 1.38671875 C2.82101563 1.83660156 3.52484375 2.28648437 4.25 2.75 C5.9921875 4.07421875 5.9921875 4.07421875 6.9921875 6.07421875 C5.72375 5.61015625 5.72375 5.61015625 4.4296875 5.13671875 C0.9424021 4.05883054 -2.38958785 3.50840571 -6.0078125 3.07421875 C-5.6778125 2.08421875 -5.3478125 1.09421875 -5.0078125 0.07421875 C-2.0078125 -0.92578125 -2.0078125 -0.92578125 0 0 Z " fill="#97A3BC" transform="translate(182.0078125,177.92578125)"/>
<path d="M0 0 C6.0546875 -0.1953125 6.0546875 -0.1953125 8 0 C8.66 0.66 9.32 1.32 10 2 C5.05 3.485 5.05 3.485 0 5 C0 3.35 0 1.7 0 0 Z " fill="#EEF0F4" transform="translate(170,176)"/>
<path d="M0 0 C2.475 0.495 2.475 0.495 5 1 C4.67 2.32 4.34 3.64 4 5 C2.68 5.33 1.36 5.66 0 6 C0 4.02 0 2.04 0 0 Z " fill="#E0E0E0" transform="translate(124,355)"/>
<path d="M0 0 C2.93200474 2.85276137 5.64315404 5.65079784 8 9 C7.01 9.66 6.02 10.32 5 11 C4.16151196 9.54462432 3.32936066 8.08559627 2.5 6.625 C1.80390625 5.40683594 1.80390625 5.40683594 1.09375 4.1640625 C0 2 0 2 0 0 Z " fill="#929EB8" transform="translate(232,196)"/>
<path d="M0 0 C1.32 0 2.64 0 4 0 C3.67 1.65 3.34 3.3 3 5 C2.01 5 1.02 5 0 5 C0 3.35 0 1.7 0 0 Z " fill="#F4F4F4" transform="translate(317,348)"/>
<path d="M0 0 C0.33 1.32 0.66 2.64 1 4 C1.598125 3.649375 2.19625 3.29875 2.8125 2.9375 C5 2 5 2 8 3 C7.67 3.66 7.34 4.32 7 5 C2.52459016 6.26229508 2.52459016 6.26229508 0 5 C0 3.35 0 1.7 0 0 Z " fill="#A6B0C5" transform="translate(169,177)"/>
</svg>
